<svg xmlns="http://www.w3.org/2000/svg" width="348" height="300" fill="none" viewBox="0 0 348 300"><g filter="url(#a)" opacity=".51"><rect width="370.171" height="295.366" x="-1.183" fill="#fff" rx="10.251" transform="matrix(.86603 -.5 .86603 .5 1.767 280.408)"/><rect width="370.171" height="295.366" x="-1.183" stroke="#e5e7eb" stroke-width="1.366" rx="10.251" transform="matrix(.86603 -.5 .86603 .5 1.767 280.408)"/><rect width="370.171" height="295.366" x="-1.183" fill="#fff" rx="10.251" transform="matrix(.86603 -.5 .86603 .5 1.767 245.616)"/><rect width="370.171" height="295.366" x="-1.183" stroke="#e5e7eb" stroke-width="1.366" rx="10.251" transform="matrix(.86603 -.5 .86603 .5 1.767 245.616)"/><rect width="370.171" height="295.366" x="-1.183" fill="#fff" rx="10.251" transform="matrix(.86603 -.5 .86603 .5 1.767 208.213)"/><rect width="370.171" height="295.366" x="-1.183" stroke="#e5e7eb" stroke-width="1.366" rx="10.251" transform="matrix(.86603 -.5 .86603 .5 1.767 208.213)"/><g clip-path="url(#b)"><rect width="368.805" height="330.57" fill="#fff" rx="9.568" transform="matrix(.86603 -.5 .86603 .5 1.926 171.402)"/><path fill="#4fffd3" d="m122.855 223.855 122.374-70.646 14.233 8.217-122.374 70.646z"/><path fill="#0d9488" d="m77.802 191.186-1.362-.786a5 5 0 0 1-2.162.528 4.1 4.1 0 0 1-2.016-.504l.936-.54q.51.294 1.133.306.633.006 1.267-.276l-2.722-1.572-.364.114a5.4 5.4 0 0 1-2.006.234 4.1 4.1 0 0 1-1.735-.522q-.832-.48-.863-1.086-.021-.612.77-1.164l-1.373-.792.624-.36 1.361.786q.946-.45 2.006-.438a3.94 3.94 0 0 1 1.922.498l-.935.54a2.26 2.26 0 0 0-1.05-.306 2.4 2.4 0 0 0-1.101.192l2.577 1.488.551-.162q.998-.3 1.985-.21t1.756.534q.852.492.863 1.134.02.636-.8 1.218l1.361.786zm-1.58-1.632q.426-.342.395-.684-.032-.342-.53-.63a2.5 2.5 0 0 0-1.05-.318q-.583-.06-1.174.126l-.166.048zm-3.918-1.542-2.796-1.614q-.384.306-.363.618.03.306.478.564.54.312 1.247.336.696.018 1.413-.288z"/><path fill="#9ca3af" d="m88.778 185.329-7.586-4.38.935-.54 1.091.63.187-.108.031.234q-.654-.378-.602-.84.051-.474.758-.882.863-.498 1.944-.462 1.08.024 2.068.594l1.673.966q.654.378.894.792.25.408.083.804-.156.39-.738.726-.696.402-1.517.432-.822.03-1.466-.342l.406.018-.208.12 1.32.738 1.662.96zm-.384-2.754q.591-.342.571-.738-.01-.402-.675-.786l-1.56-.9a2.74 2.74 0 0 0-1.36-.39 2.43 2.43 0 0 0-1.279.33q-.57.33-.55.738t.665.78l1.558.9q.645.372 1.351.384.707.012 1.279-.318m4.942-2.038-5.715-3.3.914-.528 1.091.63.218-.126.375.564q-.926-.534-.998-1.032-.073-.51.717-.966a3.77 3.77 0 0 1 2.006-.498 4.16 4.16 0 0 1 2.068.57l.343.198-.936.54-.26-.15q-.676-.39-1.36-.402a2.37 2.37 0 0 0-1.29.324q-.591.342-.571.75.03.402.696.786l3.638 2.1zm5.961-3.441-.852-.492 2.027-1.17-4.012-2.316-1.766 1.02-.853-.492 2.702-1.56 4.864 2.808 1.923-1.11.852.492zm-4.354-5.274a1.5 1.5 0 0 1-.717.21 1.24 1.24 0 0 1-.676-.162q-.31-.18-.29-.396.01-.222.353-.42t.727-.204q.374-.012.686.168.302.174.28.39-.02.216-.363.414m12.726.536a4.5 4.5 0 0 1-1.195.486q-.612.138-1.205.096a3.2 3.2 0 0 1-1.091-.282l.935-.54q.364.138.811.084.456-.06.914-.324l.437-.252q.55-.318.602-.6.042-.288-.332-.504a1.46 1.46 0 0 0-.821-.186q-.457.012-1.008.246l-.894.372q-.988.402-1.777.426a2.9 2.9 0 0 1-1.517-.408q-.77-.444-.697-.966.063-.528 1.04-1.092l.394-.228a4 4 0 0 1 1.705-.54 3.5 3.5 0 0 1 1.642.252l-.935.54a1.55 1.55 0 0 0-.738-.066q-.416.048-.842.294l-.395.228q-.53.306-.582.564-.042.252.353.48.353.204.728.18.373-.024.894-.24l.893-.372q1.071-.45 1.881-.462a2.96 2.96 0 0 1 1.57.414q.79.456.737 1.014-.051.546-1.07 1.134zm3.894-2.344-5.716-3.3.821-.474.686.396.187-.108.104.228q-.479-.276-.51-.582-.02-.312.416-.564a1.8 1.8 0 0 1 1.091-.222q.613.054 1.258.426l-.842-.162.436-.252.052.258q-.478-.276-.498-.588-.01-.318.426-.57.54-.312 1.236-.246.707.06 1.372.444l4.344 2.508-.862.498-4.355-2.514a1.6 1.6 0 0 0-.706-.228q-.343-.03-.634.138-.281.162-.25.372.031.198.385.402l4.364 2.52-.748.432-4.354-2.514a1.54 1.54 0 0 0-.717-.222 1.1 1.1 0 0 0-.645.144q-.29.168-.239.366.042.192.395.396l4.365 2.52zm8.268-4.653a4 4 0 0 1-1.881.558q-.988.03-1.777-.426-.801-.462-.738-1.026.062-.564.946-1.074l1.766-1.02-.571-.33a2.06 2.06 0 0 0-1.133-.282 2.44 2.44 0 0 0-1.185.348q-.509.294-.634.618-.135.318.177.558l-.935.54q-.645-.48-.478-1.08.165-.6 1.07-1.122a4.4 4.4 0 0 1 2.068-.606q1.081-.036 1.954.468l3.928 2.268-.914.528-1.092-.63-.156.09v-.18q.624.36.499.852-.114.486-.914.948m-.509-.558q.665-.384.758-.822.095-.438-.426-.738l-.811-.468-1.745 1.008q-.468.27-.478.576t.436.564q.478.276 1.081.252a2.7 2.7 0 0 0 1.185-.372m13.138-6.734q-.852.492-1.954.468a4.3 4.3 0 0 1-2.068-.594l-1.673-.966q-.987-.57-1.04-1.2-.051-.63.811-1.128a3.2 3.2 0 0 1 1.517-.432 2.7 2.7 0 0 1 1.455.348l-.405-.018.208-.12-1.32-.738-1.663-.96.936-.54 7.586 4.38-.935.54-1.092-.63-.187.108-.031-.234q.655.378.613.846-.051.462-.758.87m-.499-.648q.582-.336.551-.738t-.676-.774l-1.559-.9a2.8 2.8 0 0 0-1.34-.39 2.4 2.4 0 0 0-1.279.318q-.591.342-.582.744.011.402.676.786l1.559.9q.665.384 1.361.39a2.5 2.5 0 0 0 1.289-.336m7.063-3.141q-.676.39-1.455.528a4.7 4.7 0 0 1-1.538.012 4.3 4.3 0 0 1-1.424-.51l-1.559-.9q-.665-.384-.883-.822a.96.96 0 0 1 .02-.888q.24-.45.915-.84t1.444-.522a4.5 4.5 0 0 1 1.539-.012q.768.12 1.434.504l1.008.582-3.554 2.052.55.318q.676.39 1.383.402.696.006 1.33-.36.54-.312.686-.612.135-.306-.177-.57l.935-.54q.623.468.437 1.068-.188.588-1.091 1.11m-2.037-2.7-.385-.222a2.83 2.83 0 0 0-1.382-.402 2.5 2.5 0 0 0-1.341.354q-.633.366-.613.774t.697.798l.301.174 2.712-1.566zm7.873 1.37-7.586-4.38.935-.54 1.091.63.187-.108.031.234q-.654-.378-.602-.84.051-.474.758-.882.862-.498 1.944-.462 1.08.024 2.068.594l1.673.966q.654.378.894.792.25.408.083.804-.156.39-.738.726-.696.402-1.517.432-.822.03-1.466-.342l.406.018-.208.12 1.32.738 1.662.96zm-.385-2.754q.593-.342.572-.738-.01-.402-.675-.786l-1.559-.9a2.75 2.75 0 0 0-1.362-.39 2.43 2.43 0 0 0-1.278.33q-.572.33-.551.738t.665.78l1.559.9q.645.372 1.351.384.707.012 1.278-.318m7.687-3.622q-.5.288-1.071.39a3.4 3.4 0 0 1-1.143.012 3 3 0 0 1-1.06-.372l-5.123-2.958-1.923 1.11-.852-.492 2.858-1.65 5.975 3.45q.354.204.759.21.395 0 .728-.192l1.818-1.05.852.492zm5.535-3.099a4.5 4.5 0 0 1-1.445.534 4.6 4.6 0 0 1-1.527.018 4.3 4.3 0 0 1-1.445-.522l-1.517-.876q-.687-.396-.904-.834a.92.92 0 0 1 .031-.882q.238-.438.925-.834a4.5 4.5 0 0 1 1.444-.534 4.4 4.4 0 0 1 1.518-.012q.769.12 1.444.51l1.528.882q.675.39.893.84a.9.9 0 0 1-.02.876q-.24.438-.925.834m-.832-.48q.614-.354.614-.75t-.666-.78l-1.517-.876a2.7 2.7 0 0 0-1.351-.384q-.685 0-1.299.354-.603.348-.613.75 0 .396.665.78l1.517.876q.666.384 1.351.384a2.6 2.6 0 0 0 1.299-.354m7.583-1.354-1.382-1.77-7.483-1.872 1.039-.6 4.864 1.272q.249.06.561.168l.509.174-.301-.294a4 4 0 0 1-.301-.318l-2.287-2.76 1.008-.582 4.77 6.006zm-72.773 57.255h-6.443l-.01-3.726 6.453.006zm10.821-5.647-7.587-4.38 1.965-1.134a4.7 4.7 0 0 1 1.548-.57 4.8 4.8 0 0 1 1.621-.024q.811.12 1.507.522l3.024 1.746q.697.402.915.876.218.462-.042.936-.249.468-.987.894zm.104-1.02 1.029-.594q.686-.396.686-.84.01-.45-.676-.846l-3.024-1.746a2.8 2.8 0 0 0-1.455-.384q-.77 0-1.455.396l-1.029.594zm8.393-3.766q-.677.39-1.455.528a4.7 4.7 0 0 1-1.538.012 4.3 4.3 0 0 1-1.424-.51l-1.559-.9q-.665-.384-.883-.822a.96.96 0 0 1 .021-.888q.239-.45.914-.84a4.3 4.3 0 0 1 1.445-.522 4.5 4.5 0 0 1 1.538-.012q.768.12 1.434.504l1.008.582-3.554 2.052.551.318q.675.39 1.382.402.696.006 1.33-.36.54-.312.686-.612.135-.306-.177-.57l.935-.54q.624.468.437 1.068-.187.588-1.091 1.11m-2.037-2.7-.385-.222a2.83 2.83 0 0 0-1.382-.402 2.5 2.5 0 0 0-1.34.354q-.634.366-.614.774t.697.798l.301.174 2.712-1.566zm7.873 1.371-7.586-4.38.935-.54 1.091.63.187-.108.032.234q-.656-.378-.603-.84.051-.474.758-.882.863-.498 1.944-.462 1.08.024 2.068.594l1.673.966q.654.378.894.792.25.408.083.804-.156.39-.738.726-.696.402-1.517.432-.822.03-1.466-.342l.406.018-.208.12 1.32.738 1.662.96zm-.384-2.754q.592-.342.571-.738-.01-.402-.675-.786l-1.559-.9a2.74 2.74 0 0 0-1.362-.39 2.43 2.43 0 0 0-1.278.33q-.571.33-.551.738.021.408.666.78l1.558.9q.645.372 1.351.384.708.012 1.279-.318m7.686-3.622a3.3 3.3 0 0 1-1.071.39 3.4 3.4 0 0 1-1.143.012 3 3 0 0 1-1.06-.372l-5.123-2.958-1.923 1.11-.852-.492 2.858-1.65 5.976 3.45q.353.204.758.21.395 0 .728-.192l1.818-1.05.853.492zm5.535-3.1a4.5 4.5 0 0 1-1.445.534 4.6 4.6 0 0 1-1.527.018 4.3 4.3 0 0 1-1.445-.522l-1.517-.876q-.686-.396-.904-.834a.93.93 0 0 1 .031-.882q.239-.438.925-.834a4.5 4.5 0 0 1 1.444-.534 4.4 4.4 0 0 1 1.518-.012q.769.12 1.444.51l1.528.882q.675.39.894.84a.9.9 0 0 1-.021.876q-.239.438-.925.834m-.831-.48q.613-.354.613-.75t-.665-.78l-1.518-.876a2.67 2.67 0 0 0-1.351-.384q-.685 0-1.299.354-.603.348-.613.75 0 .396.665.78l1.518.876q.664.384 1.351.384a2.6 2.6 0 0 0 1.299-.354m7.582-1.353-1.382-1.77-7.483-1.872 1.039-.6 4.864 1.272q.249.06.561.168l.509.174-.301-.294a4 4 0 0 1-.301-.318l-2.287-2.76 1.008-.582 4.771 6.006zm3.394-4.12-.852-.492 2.026-1.17-4.011-2.316-1.767 1.02-.852-.492 2.702-1.56 4.864 2.808 1.922-1.11.852.492zm-4.354-5.274a1.5 1.5 0 0 1-.717.21 1.24 1.24 0 0 1-.676-.162q-.312-.18-.291-.396.01-.222.354-.42t.727-.204q.374-.012.686.168.301.174.28.39t-.363.414m10.658 1.634-5.716-3.3.936-.54 1.091.63.197-.114.021.24q-.675-.39-.634-.834.031-.45.748-.864a3.65 3.65 0 0 1 1.902-.486 3.94 3.94 0 0 1 1.954.54l3.845 2.22-.935.54-3.741-2.16a2.46 2.46 0 0 0-1.268-.348 2.35 2.35 0 0 0-1.216.318q-.582.336-.572.738.021.396.686.78l3.637 2.1zm8.819-2.931-.852-.492 1.819-1.05q.436-.252.436-.48.01-.234-.405-.474l-.728-.42-1.018-.612-.187.108.021-.192q.623.36.571.81-.051.45-.748.852a3.6 3.6 0 0 1-1.964.474 4.4 4.4 0 0 1-2.068-.606l-1.206-.696q-.976-.564-1.039-1.188t.821-1.134a3.15 3.15 0 0 1 1.476-.432q.779-.03 1.403.33l-.333.012.177-.102-1.091-.63.925-.534 5.923 3.42q.77.444.738.978-.02.528-.863 1.014zm-1.621-2.58q.582-.336.551-.738t-.676-.774l-1.091-.63a2.8 2.8 0 0 0-1.341-.39 2.4 2.4 0 0 0-1.278.318q-.592.342-.571.738.03.39.696.774l1.091.63q.665.384 1.341.402.686.012 1.278-.33m14.281-6.89a3.15 3.15 0 0 1-1.548.438 2.94 2.94 0 0 1-1.517-.408l-3.357-1.938-1.611.93-.852-.492 1.611-.93-1.611-.93.935-.54 1.611.93 2.286-1.32.852.492-2.286 1.32 3.357 1.938q.654.378 1.278.018l1.559-.9.852.492zm5.691-3.189a4.5 4.5 0 0 1-1.444.534 4.6 4.6 0 0 1-1.528.018 4.3 4.3 0 0 1-1.445-.522l-1.517-.876q-.685-.396-.904-.834a.93.93 0 0 1 .031-.882q.24-.438.925-.834a4.5 4.5 0 0 1 1.445-.534 4.4 4.4 0 0 1 1.517-.012q.77.12 1.444.51l1.528.882q.675.39.894.84a.9.9 0 0 1-.021.876q-.239.438-.925.834m-.831-.48q.613-.354.613-.75t-.665-.78l-1.517-.876a2.7 2.7 0 0 0-1.351-.384q-.687 0-1.299.354-.603.348-.614.75 0 .396.666.78l1.517.876q.665.384 1.351.384a2.6 2.6 0 0 0 1.299-.354m11.049-5.516-7.586-4.38 2.442-1.41a4.5 4.5 0 0 1 1.507-.546 4.6 4.6 0 0 1 1.569-.018q.79.12 1.476.516.675.39.893.852.219.45-.02.912-.25.456-.956.864l-1.507.87 3.117 1.8zm-3.024-2.826 1.507-.87q.613-.354.603-.78-.01-.438-.645-.804a2.73 2.73 0 0 0-1.392-.372 2.6 2.6 0 0 0-1.351.348l-1.507.87zm9.453-.885-5.716-3.3.915-.528 1.091.63.218-.126.374.564q-.925-.534-.997-1.032-.074-.51.717-.966a3.77 3.77 0 0 1 2.005-.498 4.16 4.16 0 0 1 2.068.57l.343.198-.935.54-.26-.15q-.675-.39-1.361-.402a2.37 2.37 0 0 0-1.289.324q-.592.342-.571.75.03.402.696.786l3.637 2.1zm5.961-3.442-.852-.492 2.026-1.17-4.011-2.316-1.767 1.02-.852-.492 2.702-1.56 4.864 2.808 1.922-1.11.852.492zm-4.354-5.274a1.5 1.5 0 0 1-.717.21 1.24 1.24 0 0 1-.676-.162q-.312-.18-.291-.396.01-.222.353-.42.344-.198.728-.204.374-.012.686.168.301.174.28.39t-.363.414m12.726.537a4.5 4.5 0 0 1-1.195.486 4.1 4.1 0 0 1-1.205.096 3.2 3.2 0 0 1-1.092-.282l.936-.54q.363.138.81.084.458-.06.915-.324l.436-.252q.55-.318.603-.6.042-.288-.333-.504a1.45 1.45 0 0 0-.821-.186q-.456.012-1.008.246l-.893.372q-.988.402-1.777.426a2.9 2.9 0 0 1-1.518-.408q-.768-.444-.696-.966.063-.528 1.039-1.092l.395-.228a4 4 0 0 1 1.704-.54 3.5 3.5 0 0 1 1.642.252l-.935.54a1.55 1.55 0 0 0-.738-.066q-.415.048-.841.294l-.395.228q-.531.306-.582.564-.042.252.353.48.354.204.727.18.375-.024.894-.24l.894-.372q1.071-.45 1.881-.462a2.96 2.96 0 0 1 1.569.414q.79.456.738 1.014-.052.546-1.07 1.134zm3.893-2.344-5.716-3.3.821-.474.686.396.187-.108.104.228q-.477-.276-.509-.582-.02-.312.416-.564a1.8 1.8 0 0 1 1.091-.222q.613.054 1.257.426l-.841-.162.436-.252.052.258q-.478-.276-.499-.588-.01-.318.426-.57.541-.312 1.237-.246.706.06 1.372.444l4.344 2.508-.863.498-4.354-2.514a1.6 1.6 0 0 0-.707-.228q-.343-.03-.634.138-.28.162-.249.372.031.198.384.402l4.365 2.52-.748.432-4.354-2.514a1.54 1.54 0 0 0-.718-.222 1.1 1.1 0 0 0-.644.144q-.291.168-.239.366.042.192.395.396l4.365 2.52zm8.268-4.654a4 4 0 0 1-1.881.558q-.987.03-1.777-.426-.8-.462-.738-1.026t.946-1.074l1.767-1.02-.572-.33a2.06 2.06 0 0 0-1.132-.282 2.44 2.44 0 0 0-1.185.348q-.51.294-.634.618-.135.318.177.558l-.936.54q-.644-.48-.478-1.08t1.071-1.122a4.4 4.4 0 0 1 2.068-.606q1.08-.036 1.953.468l3.929 2.268-.915.528-1.091-.63-.156.09v-.18q.624.36.499.852-.114.486-.915.948m-.509-.558q.665-.384.759-.822t-.426-.738l-.811-.468-1.746 1.008q-.468.27-.478.576t.437.564q.478.276 1.08.252a2.7 2.7 0 0 0 1.185-.372m13.512-6.949a4.6 4.6 0 0 1-1.454.54 4.6 4.6 0 0 1-1.528.018 4.3 4.3 0 0 1-1.445-.522l-3.429-1.98q-.686-.396-.904-.834a.93.93 0 0 1 .031-.882q.25-.444.935-.84t1.455-.528a4.4 4.4 0 0 1 1.517-.012q.759.126 1.435.516l-.936.54a2.6 2.6 0 0 0-1.33-.372 2.47 2.47 0 0 0-1.299.342q-.613.354-.624.756 0 .396.645.768l3.44 1.986a2.7 2.7 0 0 0 1.34.378 2.6 2.6 0 0 0 1.31-.36q.612-.354.602-.744-.01-.402-.654-.774l.935-.54q.665.384.894.828a.93.93 0 0 1-.011.882q-.238.438-.925.834m6.169-3.586a4.5 4.5 0 0 1-1.444.534 4.6 4.6 0 0 1-1.528.018 4.3 4.3 0 0 1-1.444-.522l-1.518-.876q-.685-.396-.904-.834a.93.93 0 0 1 .031-.882q.24-.438.925-.834a4.5 4.5 0 0 1 1.445-.534 4.4 4.4 0 0 1 1.517-.012q.769.12 1.445.51l1.527.882q.677.39.894.84a.9.9 0 0 1-.021.876q-.238.438-.925.834m-.831-.48q.613-.354.613-.75t-.665-.78l-1.517-.876a2.7 2.7 0 0 0-1.351-.384q-.685 0-1.299.354-.603.348-.613.75 0 .396.665.78l1.517.876q.665.384 1.351.384a2.6 2.6 0 0 0 1.299-.354m4.548-1.761-5.716-3.3.821-.474.686.396.187-.108.104.228q-.479-.276-.509-.582-.021-.312.415-.564a1.8 1.8 0 0 1 1.092-.222q.613.054 1.257.426l-.842-.162.437-.252.052.258q-.478-.276-.499-.588-.01-.318.426-.57.54-.312 1.237-.246.707.06 1.371.444l4.344 2.508-.862.498-4.355-2.514a1.6 1.6 0 0 0-.706-.228q-.343-.03-.634.138-.28.162-.25.372.031.198.385.402l4.365 2.52-.749.432-4.354-2.514a1.5 1.5 0 0 0-.717-.222 1.1 1.1 0 0 0-.644.144q-.291.168-.239.366.04.192.395.396l4.364 2.52zm8.372-2.674-7.586-4.38.935-.54 1.091.63.187-.108.031.234q-.654-.378-.602-.84.051-.474.758-.882.862-.498 1.944-.462 1.08.024 2.068.594l1.673.966q.654.378.894.792.25.408.083.804-.156.39-.738.726-.696.402-1.517.432-.822.03-1.466-.342l.406.018-.208.12 1.319.738 1.663.96zm-.385-2.754q.593-.342.572-.738-.01-.402-.675-.786l-1.559-.9a2.75 2.75 0 0 0-1.362-.39 2.43 2.43 0 0 0-1.278.33q-.572.33-.551.738t.665.78l1.559.9q.645.372 1.351.384t1.278-.318m7.001-3.106a4.3 4.3 0 0 1-2.162.576 4.3 4.3 0 0 1-2.193-.582l-3.637-2.1.935-.54 3.638 2.1a2.8 2.8 0 0 0 1.34.39q.687.012 1.258-.318.582-.336.561-.732-.021-.408-.665-.78l-3.637-2.1.935-.54 3.637 2.1q1.008.582.998 1.272-.021.684-1.008 1.254m6.761-4.023a3.15 3.15 0 0 1-1.548.438 2.94 2.94 0 0 1-1.518-.408l-3.356-1.938-1.611.93-.852-.492 1.611-.93-1.611-.93.935-.54 1.611.93 2.286-1.32.852.492-2.286 1.32 3.357 1.938q.654.378 1.278.018l1.559-.9.852.492zm5.712-3.178q-.675.39-1.455.528a4.7 4.7 0 0 1-1.538.012 4.3 4.3 0 0 1-1.424-.51l-1.559-.9q-.665-.384-.883-.822a.96.96 0 0 1 .021-.888q.239-.45.914-.84.676-.39 1.445-.522a4.5 4.5 0 0 1 1.538-.012q.77.12 1.434.504l1.008.582-3.554 2.052.551.318q.675.39 1.382.402.696.006 1.33-.36.54-.312.686-.612.135-.306-.177-.57l.936-.54q.623.468.436 1.068-.187.588-1.091 1.11m-2.037-2.7-.385-.222a2.83 2.83 0 0 0-1.382-.402 2.5 2.5 0 0 0-1.34.354q-.634.366-.613.774.02.408.696.798l.301.174 2.713-1.566zm9.32-1.505a1.7 1.7 0 0 1-.852.228 1.63 1.63 0 0 1-.852-.216q-.406-.234-.406-.51-.01-.27.385-.498.394-.228.873-.228.468.006.873.24.384.222.384.486-.01.27-.405.498m5.186-2.994a1.7 1.7 0 0 1-.852.228 1.63 1.63 0 0 1-.853-.216q-.405-.234-.405-.51-.01-.27.385-.498.394-.228.873-.228.466.006.873.24.384.222.384.486-.01.27-.405.498m5.186-2.994q-.396.228-.863.234-.457 0-.842-.222-.405-.234-.415-.504 0-.276.394-.504.396-.228.863-.222.478 0 .883.234.385.222.374.492 0 .264-.394.492m-41.741 41.979-.852-.492 2.058-1.188-5.955-3.438-.52 2.076-1.039-.6.436-1.728 1.279-.738 6.734 3.888 1.683-.972.853.492zm8.518-4.798q-.395.228-.863.234-.457 0-.842-.222-.405-.234-.415-.504 0-.276.395-.504.394-.228.862-.222.478 0 .883.234.386.222.375.492 0 .264-.395.492m3.965-2.409-.956-.552-.145-2.76q-.041-.708-.26-1.146a1.7 1.7 0 0 0-.686-.708 2.7 2.7 0 0 0-1.351-.372 2.5 2.5 0 0 0-1.309.336q-.666.384-.676.822 0 .432.655.81l-.935.54q-.666-.408-.873-.864a.99.99 0 0 1 .041-.924q.26-.462.956-.864.687-.396 1.455-.528a4.4 4.4 0 0 1 1.528-.018 4.2 4.2 0 0 1 1.434.516q.644.372.935.936t.323 1.482l.062 2.196 3.461-1.998.852.492zm8.3-4.696a4.5 4.5 0 0 1-1.195.486 4.1 4.1 0 0 1-1.206.096 3.2 3.2 0 0 1-1.091-.282l.935-.54q.364.138.811.084.458-.06.914-.324l.437-.252q.55-.318.603-.6.041-.288-.333-.504a1.45 1.45 0 0 0-.821-.186q-.458.012-1.008.246l-.894.372q-.987.402-1.777.426a2.9 2.9 0 0 1-1.517-.408q-.77-.444-.696-.966.062-.528 1.039-1.092l.395-.228a4 4 0 0 1 1.704-.54 3.5 3.5 0 0 1 1.642.252l-.935.54a1.55 1.55 0 0 0-.738-.066q-.416.048-.842.294l-.395.228q-.53.306-.582.564-.041.252.354.48.353.204.727.18.375-.024.894-.24l.894-.372q1.07-.45 1.881-.462a2.96 2.96 0 0 1 1.569.414q.789.456.738 1.014-.053.546-1.071 1.134zm-21.602 30.496q-.697.402-1.486.546-.79.132-1.569.006a4.3 4.3 0 0 1-1.466-.522l-3.325-1.92q-.687-.396-.904-.846a.94.94 0 0 1 .02-.9q.24-.462.936-.864.707-.408 1.496-.54a4.6 4.6 0 0 1 1.559-.012q.78.126 1.465.522l3.326 1.92q.675.39.904.846a.97.97 0 0 1-.021.912q-.239.45-.935.852m-.8-.462q.623-.36.602-.804-.02-.456-.654-.822l-3.326-1.92a2.8 2.8 0 0 0-1.413-.372 2.63 2.63 0 0 0-1.403.342q-.624.36-.603.816.02.444.655.81l3.325 1.92q.634.366 1.414.384.779.006 1.403-.354m-2.484-1.434a1.24 1.24 0 0 1-.634.162 1.3 1.3 0 0 1-.634-.174q-.28-.162-.281-.354 0-.204.281-.366.28-.162.624-.156.342-.006.623.156.291.168.291.372.01.198-.27.36m9.515-1.702a1.74 1.74 0 0 1-.862.234q-.458 0-.842-.222-.405-.234-.416-.504 0-.276.395-.504t.863-.222q.477 0 .883.234.384.222.374.492 0 .264-.395.492m7.271-4.317-1.663-.96-3.43 1.98-1.465-.846-1.455-4.308 1.019-.588 1.569 4.47.416.24 2.494-1.44-1.85-1.068.935-.54 4.365 2.52zm4.994-2.788a4.5 4.5 0 0 1-1.195.486q-.613.138-1.205.096a3.2 3.2 0 0 1-1.091-.282l.935-.54q.364.138.81.084.457-.06.915-.324l.436-.252q.552-.318.603-.6.042-.288-.332-.504a1.46 1.46 0 0 0-.821-.186q-.457.012-1.008.246l-.894.372q-.987.402-1.777.426a2.9 2.9 0 0 1-1.517-.408q-.77-.444-.697-.966.063-.528 1.039-1.092l.395-.228a4 4 0 0 1 1.705-.54 3.5 3.5 0 0 1 1.642.252l-.936.54a1.54 1.54 0 0 0-.737-.066q-.416.048-.842.294l-.395.228q-.53.306-.582.564-.042.252.353.48.353.204.728.18.374-.024.893-.24l.894-.372q1.071-.45 1.881-.462a2.96 2.96 0 0 1 1.569.414q.79.456.738 1.014-.051.546-1.07 1.134z"/><path fill="#4338ca" d="m106.723 208.388-.447-2.202a1 1 0 0 1-.02-.288q0-.156.02-.252l-.093-.054q-.124.084-.312.216-.198.126-.374.228l-3.429 1.98-.832-.48 3.43-1.98a6 6 0 0 1 .405-.21q.218-.114.374-.18l-.093-.054a10 10 0 0 1-.957-.012l-3.803-.252 1.091-.63 5.477.378.665 3.156zm11.372-6.145-7.587-4.38 2.152-1.242q1.038-.6 2.14-.636a3.7 3.7 0 0 1 2.037.492q.52.3.686.648a.72.72 0 0 1-.031.702q-.188.348-.759.666l-.156-.09a3.6 3.6 0 0 1 1.268-.468q.687-.12 1.372 0 .696.114 1.31.468.643.372.852.804a.9.9 0 0 1-.031.87q-.25.432-.946.834zm.073-1.014 1.288-.744q.655-.378.686-.792.031-.426-.572-.774a2.73 2.73 0 0 0-1.392-.36 2.7 2.7 0 0 0-1.424.366l-1.288.744zm-3.513-2.028 1.226-.708q.603-.348.624-.732.031-.39-.52-.708a2.3 2.3 0 0 0-1.216-.306 2.6 2.6 0 0 0-1.268.36l-1.236.714zm11.916-1.732a4.3 4.3 0 0 1-2.162.576 4.3 4.3 0 0 1-2.193-.582l-3.637-2.1.935-.54 3.638 2.1a2.8 2.8 0 0 0 1.34.39q.687.012 1.258-.318.582-.336.561-.732-.021-.408-.665-.78l-3.637-2.1.935-.54 3.637 2.1q1.008.582.998 1.272-.021.684-1.008 1.254m3.903-2.373-.852-.492 2.027-1.17-4.012-2.316-1.767 1.02-.852-.492 2.702-1.56 4.864 2.808 1.922-1.11.853.492zm-4.354-5.274a1.5 1.5 0 0 1-.717.21 1.24 1.24 0 0 1-.676-.162q-.312-.18-.291-.396.01-.222.354-.42.342-.198.727-.204.374-.012.686.168.301.174.281.39t-.364.414m13.599-.064a3.3 3.3 0 0 1-1.07.39 3.4 3.4 0 0 1-1.143.012 3 3 0 0 1-1.06-.372l-5.124-2.958-1.922 1.11-.852-.492 2.858-1.65 5.975 3.45q.354.204.759.21.394 0 .727-.192l1.819-1.05.852.492zm5.224-2.896q-.852.492-1.954.468a4.3 4.3 0 0 1-2.068-.594l-1.673-.966q-.988-.57-1.04-1.2-.051-.63.811-1.128a3.2 3.2 0 0 1 1.517-.432 2.7 2.7 0 0 1 1.455.348l-.405-.018.208-.12-1.32-.738-1.663-.96.935-.54 7.587 4.38-.935.54-1.092-.63-.187.108-.031-.234q.655.378.613.846-.051.462-.758.87m-.499-.648q.582-.336.551-.738t-.676-.774l-1.559-.9a2.8 2.8 0 0 0-1.34-.39 2.4 2.4 0 0 0-1.279.318q-.593.342-.582.744t.676.786l1.559.9q.665.384 1.361.39a2.5 2.5 0 0 0 1.289-.336m4.724-1.911-.852-.492 2.027-1.17-4.012-2.316-1.767 1.02-.852-.492 2.702-1.56 4.864 2.808 1.922-1.11.853.492zm-4.354-5.274a1.5 1.5 0 0 1-.717.21 1.24 1.24 0 0 1-.676-.162q-.312-.18-.291-.396.01-.222.354-.42t.727-.204q.375-.012.686.168.301.174.281.39-.022.216-.364.414m10.658 1.634-5.715-3.3.935-.54 1.091.63.197-.114.021.24q-.675-.39-.634-.834.032-.45.749-.864a3.65 3.65 0 0 1 1.901-.486 3.94 3.94 0 0 1 1.954.54l3.845 2.22-.935.54-3.741-2.16a2.46 2.46 0 0 0-1.268-.348 2.35 2.35 0 0 0-1.216.318q-.582.336-.572.738.021.396.686.78l3.638 2.1zm8.819-2.932-.852-.492 1.819-1.05q.436-.252.436-.48.01-.234-.405-.474l-.727-.42-1.019-.612-.187.108.021-.192q.623.36.571.81-.051.45-.748.852a3.6 3.6 0 0 1-1.964.474 4.4 4.4 0 0 1-2.068-.606l-1.206-.696q-.976-.564-1.039-1.188t.821-1.134a3.15 3.15 0 0 1 1.476-.432q.779-.03 1.403.33l-.333.012.177-.102-1.091-.63.925-.534 5.923 3.42q.77.444.738.978-.02.528-.862 1.014zm-1.621-2.58q.582-.336.551-.738t-.676-.774l-1.091-.63a2.8 2.8 0 0 0-1.34-.39 2.4 2.4 0 0 0-1.279.318q-.592.342-.571.738.031.39.696.774l1.091.63q.666.384 1.341.402.686.012 1.278-.33m13.19-6.259-6.744-3.894-2.079 1.2-.852-.492 5.092-2.94.852.492-2.078 1.2 6.745 3.894zm7.302-2.056-1.382-1.77-7.483-1.872 1.04-.6 4.863 1.272q.249.06.561.168l.51.174-.302-.294a4 4 0 0 1-.301-.318l-2.287-2.76 1.009-.582 4.77 6.006zm5.338-3.081-7.587-4.38.935-.54 1.092.63.187-.108.031.234q-.656-.378-.603-.84.053-.474.759-.882.863-.498 1.943-.462a4.3 4.3 0 0 1 2.068.594l1.673.966q.656.378.894.792.25.408.083.804-.156.39-.738.726-.696.402-1.517.432t-1.465-.342l.405.018-.208.12 1.32.738 1.663.96zm-.385-2.754q.592-.342.572-.738-.01-.402-.676-.786l-1.559-.9a2.74 2.74 0 0 0-1.361-.39 2.43 2.43 0 0 0-1.278.33q-.572.33-.551.738t.665.78l1.559.9q.644.372 1.351.384t1.278-.318m7.011-3.112q-.677.39-1.455.528a4.7 4.7 0 0 1-1.538.012 4.3 4.3 0 0 1-1.424-.51l-1.559-.9q-.665-.384-.883-.822a.96.96 0 0 1 .021-.888q.239-.45.914-.84a4.3 4.3 0 0 1 1.445-.522 4.5 4.5 0 0 1 1.538-.012q.768.12 1.434.504l1.008.582-3.554 2.052.551.318q.675.39 1.382.402.696.006 1.33-.36.54-.312.686-.612.135-.306-.177-.57l.935-.54q.624.468.437 1.068-.187.588-1.091 1.11m-2.037-2.7-.385-.222a2.83 2.83 0 0 0-1.382-.402 2.5 2.5 0 0 0-1.34.354q-.634.366-.614.774t.697.798l.301.174 2.712-1.566zm8.31-.922a5.3 5.3 0 0 1-1.538.6 4.5 4.5 0 0 1-1.538.06 4 4 0 0 1-1.414-.468l.935-.54q.573.33 1.289.3.728-.036 1.424-.438.654-.378.696-.774.052-.402-.519-.732a2.5 2.5 0 0 0-1.05-.318 2.9 2.9 0 0 0-1.174.126l-1.351.408a5.4 5.4 0 0 1-2.006.234 4.1 4.1 0 0 1-1.736-.522q-.613-.354-.789-.768-.177-.426.072-.858.24-.438.915-.828a4.43 4.43 0 0 1 2.161-.6q1.154-.03 2.089.498l-.935.54a2.26 2.26 0 0 0-1.216-.306 2.55 2.55 0 0 0-1.268.36q-.603.348-.655.714-.041.36.479.66.467.27 1.06.324a3.1 3.1 0 0 0 1.205-.132l1.372-.408q.998-.3 1.985-.21t1.756.534q.624.36.8.798t-.093.894q-.26.45-.956.852m6.231-3.597a4.7 4.7 0 0 1-1.465.546 4.5 4.5 0 0 1-1.538.024 4.2 4.2 0 0 1-1.455-.516l-1.559-.9q-.685-.396-.894-.84a.92.92 0 0 1 .042-.888q.26-.45.945-.846a4.5 4.5 0 0 1 2.12-.612 4 4 0 0 1 2.079.468l-.935.54a2.37 2.37 0 0 0-1.216-.27q-.634.018-1.216.354-.613.354-.624.768-.021.408.624.78l1.569.906q.645.372 1.361.366a2.66 2.66 0 0 0 1.331-.36q.582-.336.613-.702.041-.372-.468-.702l.935-.54q.883.546.811 1.2t-1.06 1.224m4.122-2.5-5.716-3.3.914-.528 1.092.63.218-.126.374.564q-.925-.534-.998-1.032-.072-.51.717-.966a3.77 3.77 0 0 1 2.006-.498 4.16 4.16 0 0 1 2.068.57l.343.198-.935.54-.26-.15q-.675-.39-1.361-.402a2.36 2.36 0 0 0-1.289.324q-.592.342-.572.75.031.402.697.786l3.637 2.1zm5.961-3.441-.852-.492 2.026-1.17-4.011-2.316-1.767 1.02-.852-.492 2.702-1.56 4.863 2.808 1.923-1.11.852.492zm-4.355-5.274a1.5 1.5 0 0 1-.717.21 1.24 1.24 0 0 1-.675-.162q-.312-.18-.291-.396.01-.222.353-.42t.728-.204q.374-.012.686.168.3.174.28.39t-.364.414m12.529 2.714-7.586-4.38.935-.54 1.092.63.187-.108.031.234q-.656-.378-.603-.84.053-.474.759-.882.863-.498 1.943-.462a4.3 4.3 0 0 1 2.068.594l1.673.966q.656.378.894.792.25.408.083.804-.156.39-.738.726-.696.402-1.517.432t-1.465-.342l.405.018-.208.12 1.32.738 1.663.96zm-.384-2.754q.592-.342.572-.738-.011-.402-.676-.786l-1.559-.9a2.74 2.74 0 0 0-1.361-.39 2.4 2.4 0 0 0-1.278.33q-.572.33-.551.738t.665.78l1.559.9q.644.372 1.351.384.706.012 1.278-.318m7.53-3.532a3.15 3.15 0 0 1-1.548.438 2.94 2.94 0 0 1-1.517-.408l-3.357-1.938-1.611.93-.852-.492 1.611-.93-1.611-.93.935-.54 1.611.93 2.286-1.32.852.492-2.286 1.32 3.357 1.938q.654.378 1.278.018l1.559-.9.852.492zm-110.721 81.505-.447-2.202q-.032-.138-.021-.288 0-.156.021-.252l-.094-.054q-.125.084-.311.216-.198.126-.375.228l-3.429 1.98-.831-.48 3.429-1.98a6 6 0 0 1 .405-.21q.219-.114.375-.18l-.094-.054a10 10 0 0 1-.956-.012l-3.804-.252 1.091-.63 5.477.378.665 3.156zm13.626-7.327q-1.06.612-2.203.6a4.4 4.4 0 0 1-2.161-.6l-5.508-3.18.935-.54 5.508 3.18q.624.36 1.289.396.675.03 1.309-.336.624-.36.572-.75t-.676-.75l-5.508-3.18.935-.54 5.508 3.18q1.019.588 1.04 1.248.03.654-1.04 1.272m5.837-1.33-7.587-4.38.936-.54 1.091.63.187-.108.031.234q-.654-.378-.603-.84.052-.474.759-.882.863-.498 1.943-.462a4.3 4.3 0 0 1 2.068.594l1.674.966q.654.378.893.792.25.408.083.804-.155.39-.737.726-.697.402-1.518.432-.82.03-1.465-.342l.405.018-.208.12 1.32.738 1.663.96zm-.385-2.754q.593-.342.572-.738-.01-.402-.676-.786l-1.559-.9a2.74 2.74 0 0 0-1.361-.39 2.43 2.43 0 0 0-1.278.33q-.572.33-.551.738t.665.78l1.559.9q.645.372 1.351.384.707.012 1.278-.318m7.686-3.621a3.3 3.3 0 0 1-1.07.39 3.4 3.4 0 0 1-1.143.012 3 3 0 0 1-1.06-.372l-5.123-2.958-1.923 1.11-.852-.492 2.858-1.65 5.975 3.45q.354.204.759.21.395 0 .727-.192l1.819-1.05.852.492zm5.536-3.1a4.5 4.5 0 0 1-1.445.534 4.6 4.6 0 0 1-1.528.018 4.3 4.3 0 0 1-1.444-.522l-1.517-.876q-.686-.396-.905-.834a.93.93 0 0 1 .032-.882q.238-.438.924-.834a4.5 4.5 0 0 1 1.445-.534 4.4 4.4 0 0 1 1.517-.012q.769.12 1.445.51l1.527.882q.676.39.894.84a.9.9 0 0 1-.021.876q-.238.438-.924.834m-.832-.48q.613-.354.613-.75t-.665-.78l-1.517-.876a2.7 2.7 0 0 0-1.351-.384q-.685 0-1.299.354-.603.348-.613.75 0 .396.665.78l1.517.876q.666.384 1.351.384a2.6 2.6 0 0 0 1.299-.354m6.585-2.818a4 4 0 0 1-1.881.558q-.988.03-1.777-.426-.801-.462-.738-1.026.062-.564.946-1.074l1.766-1.02-.571-.33a2.06 2.06 0 0 0-1.133-.282 2.44 2.44 0 0 0-1.185.348q-.509.294-.634.618-.135.318.177.558l-.935.54q-.645-.48-.478-1.08.165-.6 1.07-1.122a4.4 4.4 0 0 1 2.068-.606q1.081-.036 1.954.468l3.928 2.268-.914.528-1.092-.63-.155.09v-.18q.623.36.498.852-.114.486-.914.948m-.509-.558q.665-.384.758-.822.094-.438-.426-.738l-.81-.468-1.746 1.008q-.468.27-.478.576t.436.564q.478.276 1.081.252a2.7 2.7 0 0 0 1.185-.372m6.906-3.135q-.852.492-1.953.468a4.3 4.3 0 0 1-2.068-.594l-1.674-.966q-.987-.57-1.039-1.2t.811-1.128a3.2 3.2 0 0 1 1.517-.432q.81-.024 1.455.348l-.405-.018.208-.12-1.32-.738-1.663-.96.935-.54 7.587 4.38-.936.54-1.091-.63-.187.108-.031-.234q.655.378.613.846-.052.462-.759.87m-.498-.648q.582-.336.55-.738-.03-.402-.675-.774l-1.559-.9a2.8 2.8 0 0 0-1.341-.39 2.4 2.4 0 0 0-1.278.318q-.593.342-.582.744.01.402.676.786l1.559.9q.665.384 1.361.39a2.5 2.5 0 0 0 1.289-.336m4.724-1.912-.852-.492 2.026-1.17-4.011-2.316-1.767 1.02-.852-.492 2.702-1.56 4.864 2.808 1.922-1.11.852.492zm-4.354-5.274a1.5 1.5 0 0 1-.717.21 1.24 1.24 0 0 1-.676-.162q-.312-.18-.291-.396.01-.222.353-.42.344-.198.728-.204.374-.012.686.168.301.174.28.39t-.363.414m10.658 1.634-5.716-3.3.936-.54 1.091.63.197-.114.021.24q-.675-.39-.634-.834.031-.45.748-.864a3.65 3.65 0 0 1 1.902-.486 3.94 3.94 0 0 1 1.954.54l3.845 2.22-.935.54-3.741-2.16a2.46 2.46 0 0 0-1.268-.348 2.35 2.35 0 0 0-1.216.318q-.582.336-.572.738.021.396.686.78l3.637 2.1zm8.819-2.931-.852-.492 1.819-1.05q.436-.252.436-.48.01-.234-.405-.474l-.728-.42-1.018-.612-.187.108.021-.192q.623.36.571.81t-.748.852a3.6 3.6 0 0 1-1.964.474 4.4 4.4 0 0 1-2.068-.606l-1.206-.696q-.976-.564-1.039-1.188t.821-1.134a3.15 3.15 0 0 1 1.476-.432q.779-.03 1.403.33l-.333.012.177-.102-1.091-.63.924-.534 5.924 3.42q.77.444.738.978-.02.528-.863 1.014zm-1.621-2.58q.582-.336.551-.738t-.676-.774l-1.091-.63a2.8 2.8 0 0 0-1.341-.39 2.4 2.4 0 0 0-1.278.318q-.592.342-.571.738.03.39.696.774l1.091.63q.665.384 1.341.402.685.012 1.278-.33m14.094-6.662a3.2 3.2 0 0 1-1.507.438 2.7 2.7 0 0 1-1.465-.354l.405.018-.187.108 1.091.63-.935.54-7.586-4.38.935-.54 1.663.96 1.278.762.208-.12.031.234q-.644-.372-.603-.84.052-.474.749-.876.863-.498 1.953-.468a4.34 4.34 0 0 1 2.079.6l1.673.966q.977.564 1.029 1.194t-.811 1.128m-1.122-.288q.593-.342.582-.744-.01-.402-.676-.786l-1.559-.9a2.74 2.74 0 0 0-1.361-.39 2.5 2.5 0 0 0-1.289.336q-.571.33-.55.738.03.402.675.774l1.559.9a2.8 2.8 0 0 0 1.341.39q.707.012 1.278-.318m7.011-3.111a4.3 4.3 0 0 1-2.162.576 4.3 4.3 0 0 1-2.193-.582l-3.637-2.1.935-.54 3.637 2.1q.645.372 1.341.39.685.012 1.258-.318.581-.336.561-.732-.021-.408-.665-.78l-3.638-2.1.936-.54 3.637 2.1q1.007.582.998 1.272-.021.684-1.008 1.254m3.976-2.416-5.716-3.3.935-.54 1.091.63.198-.114.021.24q-.676-.39-.634-.834.031-.45.748-.864a3.65 3.65 0 0 1 1.902-.486 3.94 3.94 0 0 1 1.954.54l3.845 2.22-.936.54-3.741-2.16a2.46 2.46 0 0 0-1.268-.348 2.35 2.35 0 0 0-1.216.318q-.582.336-.571.738.02.396.686.78l3.637 2.1zm8.164-4.594q-.852.492-1.954.468a4.3 4.3 0 0 1-2.068-.594l-1.673-.966q-.987-.57-1.039-1.2-.053-.63.81-1.128a3.2 3.2 0 0 1 1.518-.432q.81-.024 1.455.348l-.406-.018.208-.12-1.32-.738-1.662-.96.935-.54 7.586 4.38-.935.54-1.091-.63-.187.108-.032-.234q.655.378.614.846-.053.462-.759.87m-.499-.648q.582-.336.551-.738t-.676-.774l-1.558-.9a2.8 2.8 0 0 0-1.341-.39 2.4 2.4 0 0 0-1.278.318q-.593.342-.582.744.01.402.675.786l1.559.9q.665.384 1.362.39.696.006 1.288-.336m7.738-3.651a3.3 3.3 0 0 1-1.07.39 3.4 3.4 0 0 1-1.143.012 3 3 0 0 1-1.06-.372l-5.124-2.958-1.922 1.11-.852-.492 2.858-1.65 5.975 3.45q.354.204.759.21.395 0 .727-.192l1.819-1.05.852.492zm5.556-3.088q-.675.39-1.455.528a4.7 4.7 0 0 1-1.538.012 4.3 4.3 0 0 1-1.424-.51l-1.558-.9q-.665-.384-.884-.822a.96.96 0 0 1 .021-.888q.238-.45.915-.84.675-.39 1.444-.522a4.5 4.5 0 0 1 1.538-.012q.77.12 1.434.504l1.008.582-3.554 2.052.551.318q.675.39 1.382.402.696.006 1.33-.36.541-.312.686-.612.135-.306-.176-.57l.935-.54q.624.468.436 1.068-.186.588-1.091 1.11m-2.037-2.7-.384-.222a2.83 2.83 0 0 0-1.382-.402 2.5 2.5 0 0 0-1.341.354q-.634.366-.613.774t.696.798l.302.174 2.712-1.566z"/><path fill="#111827" d="M138.472 227.006q-.136-.078-.187-.048l-.125.204q-.072-.042-.187-.012l-.094.042a.35.35 0 0 0-.135.162 2 2 0 0 0-.156-.03l-.145-.024a20 20 0 0 1-.842-.174l-.852-.216-.624-.168a8 8 0 0 1-.498-.18 18 18 0 0 1-.79-.336.8.8 0 0 0 .249-.06q.073-.042-.083-.204a.27.27 0 0 0 .156-.042q.063-.036.052-.078l-.083-.24.249-.072.011-.006a.04.04 0 0 0 .02-.036q0-.024.021-.06.031-.078.073-.102l.042-.012q.384-.078.789.072.978.348 1.164.24.188-.108.042-.48a3 3 0 0 0-.208-.408 5 5 0 0 0-.312-.492q.146.06.166.048.052-.03-.083-.252a6 6 0 0 1-.291-.66 5 5 0 0 1-.218-.606 18 18 0 0 1-.322-1.47 9 9 0 0 1-.073-.618q-.02-.264.011-.366.124-.384.104-.66a.7.7 0 0 1 .103.096q.042.036.063.048a.08.08 0 0 0 .083 0l.145-.252.042.024q.083.048.125.024.031-.018.031-.126t-.031-.138l.124.096.146-.324.104.156q.051-.162.125-.204.04-.024.114-.006.062.012.104.036a.22.22 0 0 1 .093.114q.031.078.063.192.02.084.041.264.02.168.052.51.02.336.094.918.01.15.093.498.073.342.187.792.115.438.239.882.125.444.239.798.105.348.177.51l.447 1.002.239.534q.083.204.093.294.032.198-.01.39l-.145.024-.032.078zm13.174-8.134-7.586-4.38 1.964-1.134a4.7 4.7 0 0 1 1.548-.57 4.8 4.8 0 0 1 1.622-.024q.81.12 1.507.522l3.024 1.746q.696.402.914.876.219.462-.041.936-.25.468-.988.894zm.104-1.02 1.029-.594q.686-.396.686-.84.01-.45-.676-.846l-3.024-1.746a2.8 2.8 0 0 0-1.455-.384q-.768 0-1.455.396l-1.028.594zm8.393-3.766q-.675.39-1.455.528a4.7 4.7 0 0 1-1.538.012 4.3 4.3 0 0 1-1.424-.51l-1.558-.9q-.666-.384-.884-.822a.96.96 0 0 1 .021-.888q.239-.45.914-.84.676-.39 1.445-.522a4.5 4.5 0 0 1 1.538-.012q.77.12 1.434.504l1.008.582-3.554 2.052.551.318q.675.39 1.382.402.696.006 1.33-.36.541-.312.686-.612.135-.306-.177-.57l.936-.54q.623.468.436 1.068-.186.588-1.091 1.11m-2.037-2.7-.384-.222a2.83 2.83 0 0 0-1.383-.402 2.5 2.5 0 0 0-1.34.354q-.634.366-.613.774t.696.798l.301.174 2.713-1.566zm7.873 1.371-7.586-4.38.935-.54 1.092.63.187-.108.031.234q-.656-.378-.603-.84.053-.474.759-.882.863-.498 1.943-.462a4.3 4.3 0 0 1 2.068.594l1.673.966q.656.378.894.792.25.408.083.804-.156.39-.738.726-.696.402-1.517.432t-1.465-.342l.405.018-.208.12 1.32.738 1.663.96zm-.384-2.754q.592-.342.572-.738-.011-.402-.676-.786l-1.559-.9a2.74 2.74 0 0 0-1.361-.39 2.4 2.4 0 0 0-1.278.33q-.572.33-.551.738t.665.78l1.559.9q.644.372 1.351.384t1.278-.318m7.686-3.622a3.3 3.3 0 0 1-1.07.39 3.4 3.4 0 0 1-1.143.012 3 3 0 0 1-1.06-.372l-5.124-2.958-1.922 1.11-.853-.492 2.858-1.65 5.976 3.45q.353.204.759.21.394 0 .727-.192l1.819-1.05.852.492zm5.535-3.1a4.5 4.5 0 0 1-1.444.534 4.6 4.6 0 0 1-1.528.018 4.3 4.3 0 0 1-1.444-.522l-1.518-.876q-.685-.396-.904-.834a.93.93 0 0 1 .031-.882q.24-.438.925-.834a4.5 4.5 0 0 1 1.445-.534 4.4 4.4 0 0 1 1.517-.012q.769.12 1.445.51l1.527.882q.676.39.894.84a.9.9 0 0 1-.021.876q-.238.438-.925.834m-.831-.48q.613-.354.613-.75t-.665-.78l-1.517-.876a2.7 2.7 0 0 0-1.351-.384q-.687 0-1.299.354-.603.348-.614.75 0 .396.666.78l1.517.876q.665.384 1.351.384a2.6 2.6 0 0 0 1.299-.354m7.582-1.353-1.382-1.77-7.482-1.872 1.039-.6 4.863 1.272q.25.06.562.168l.509.174-.302-.294a4 4 0 0 1-.301-.318l-2.286-2.76 1.008-.582 4.77 6.006zm5.733-5.35q-.677.39-1.455.528a4.7 4.7 0 0 1-1.538.012 4.3 4.3 0 0 1-1.424-.51l-1.559-.9q-.665-.384-.883-.822a.96.96 0 0 1 .021-.888q.239-.45.914-.84a4.3 4.3 0 0 1 1.445-.522 4.5 4.5 0 0 1 1.538-.012q.768.12 1.434.504l1.008.582-3.554 2.052.55.318q.676.39 1.383.402.696.006 1.33-.36.54-.312.686-.612.135-.306-.177-.57l.935-.54q.624.468.437 1.068-.188.588-1.091 1.11m-2.037-2.7-.385-.222a2.83 2.83 0 0 0-1.382-.402 2.5 2.5 0 0 0-1.34.354q-.634.366-.614.774t.697.798l.301.174 2.712-1.566zm7.935-.706q-.852.492-1.953.468a4.3 4.3 0 0 1-2.068-.594l-1.674-.966q-.987-.57-1.039-1.2t.811-1.128a3.2 3.2 0 0 1 1.517-.432 2.7 2.7 0 0 1 1.455.348l-.405-.018.208-.12-1.32-.738-1.663-.96.935-.54 7.587 4.38-.936.54-1.091-.63-.187.108-.031-.234q.654.378.613.846-.052.462-.759.87m-.498-.648q.582-.336.55-.738-.03-.402-.675-.774l-1.559-.9a2.8 2.8 0 0 0-1.341-.39 2.4 2.4 0 0 0-1.278.318q-.593.342-.582.744.01.402.676.786l1.559.9q.665.384 1.361.39a2.5 2.5 0 0 0 1.289-.336m10.955-5.509-.852-.492 2.027-1.17-4.012-2.316-1.766 1.02-.853-.492 2.702-1.56 4.864 2.808 1.923-1.11.852.492zm-4.354-5.274a1.5 1.5 0 0 1-.717.21 1.25 1.25 0 0 1-.676-.162q-.31-.18-.291-.396.01-.222.354-.42t.727-.204q.375-.012.686.168.302.174.281.39t-.364.414m10.658 1.635-5.715-3.3.935-.54 1.091.63.198-.114.02.24q-.675-.39-.633-.834.03-.45.748-.864a3.65 3.65 0 0 1 1.902-.486 3.94 3.94 0 0 1 1.953.54l3.845 2.22-.935.54-3.741-2.16a2.46 2.46 0 0 0-1.268-.348 2.35 2.35 0 0 0-1.216.318q-.582.336-.571.738.02.396.685.78l3.638 2.1zm12.442-7.184-.852-.492 2.058-1.188-5.955-3.438-.52 2.076-1.039-.6.437-1.728 1.278-.738 6.734 3.888 1.684-.972.852.492zm8.518-4.797q-.395.228-.863.234-.457 0-.841-.222-.406-.234-.416-.504 0-.276.395-.504a1.65 1.65 0 0 1 .862-.222q.479 0 .884.234.384.222.374.492 0 .264-.395.492m6.242-3.604a4.7 4.7 0 0 1-1.58.564 5.3 5.3 0 0 1-1.704-.012 4.7 4.7 0 0 1-1.58-.564 4.4 4.4 0 0 1-.966-.738 2.8 2.8 0 0 1-.572-.894l-1.164-2.868 1.039-.6 1.299 3.234.073-.006q-.093-.282.094-.57t.613-.534q.623-.36 1.372-.456a4.6 4.6 0 0 1 1.527.066q.78.162 1.507.582.728.42.977.912t.021.984q-.229.48-.956.9m-.842-.474q.665-.384.634-.87-.042-.492-.769-.912a3.2 3.2 0 0 0-1.569-.438q-.853-.024-1.518.36t-.623.876q.031.486.758.906.728.42 1.58.444a2.84 2.84 0 0 0 1.507-.366m6.865-3.028a4.5 4.5 0 0 1-1.195.486 4.1 4.1 0 0 1-1.205.096 3.2 3.2 0 0 1-1.092-.282l.936-.54q.363.138.81.084.458-.06.915-.324l.436-.252q.55-.318.603-.6.042-.288-.333-.504a1.45 1.45 0 0 0-.821-.186q-.456.012-1.008.246l-.893.372q-.988.402-1.777.426a2.9 2.9 0 0 1-1.518-.408q-.768-.444-.696-.966.063-.528 1.039-1.092l.395-.228a4 4 0 0 1 1.704-.54 3.5 3.5 0 0 1 1.642.252l-.935.54a1.55 1.55 0 0 0-.738-.066q-.415.048-.841.294l-.395.228q-.531.306-.582.564-.042.252.353.48.354.204.727.18.375-.024.894-.24l.894-.372q1.071-.45 1.881-.462a2.96 2.96 0 0 1 1.569.414q.79.456.738 1.014-.052.546-1.07 1.134z"/><path fill="#0f766e" d="M170.241 244.256q-1.06.612-2.203.6a4.4 4.4 0 0 1-2.162-.6l-5.508-3.18.936-.54 5.508 3.18q.623.36 1.288.396a2.37 2.37 0 0 0 1.31-.336q.623-.36.571-.75t-.675-.75l-5.508-3.18.935-.54 5.508 3.18q1.018.588 1.039 1.248.032.654-1.039 1.272m3.966-2.409-7.587-4.38 2.349-1.356q.675-.39 1.465-.522a4.7 4.7 0 0 1 1.549-.018q.769.12 1.424.498.768.444.914.996.156.546-.322 1.062l4.916 1.002-1.102.636-4.677-1.02-1.215.702 3.221 1.86zm-3.128-2.886 1.413-.816q.582-.336.572-.75-.021-.42-.624-.768a2.66 2.66 0 0 0-1.33-.36 2.5 2.5 0 0 0-1.299.33l-1.413.816zm9.598-.85-7.586-4.38.935-.54 6.734 3.888 3.43-1.98.852.492zm2.97 16.285-7.586-4.38 4.365-2.52.852.492-3.44 1.986 2.349 1.356 3.076-1.776.841.486-3.076 1.776 2.692 1.554 3.44-1.986.852.492zm6.128-3.537-7.587-4.38 1.247-.72 8.813 2.412-.686-.336-.842-.438q-.436-.24-.81-.456l-4.261-2.46.904-.522 7.586 4.38-1.247.72-8.802-2.418q.27.132.675.342.396.204.832.444.436.228.821.45l4.261 2.46zm7.769-4.486-9.54-3.252.966-.558 6.444 2.232q.675.234 1.236.45.551.21.832.324l-.572-.474a20 20 0 0 1-.779-.714l-3.877-3.714.946-.546 5.622 5.514zm1.608 17.071-7.586-4.38 2.349-1.356q.675-.39 1.465-.522a4.7 4.7 0 0 1 1.549-.018q.769.12 1.423.498.77.444.915.996.156.546-.322 1.062l4.915 1.002-1.101.636-4.677-1.02-1.216.702 3.222 1.86zm-3.128-2.886 1.414-.816q.582-.336.571-.75-.02-.42-.623-.768a2.66 2.66 0 0 0-1.33-.36 2.5 2.5 0 0 0-1.299.33l-1.414.816zm8.923-.459-5.612-5.52 1.258-.726 9.55 3.246-.945.546-2.515-.876-2.297 1.326 1.517 1.452zm-1.164-2.568 1.913-1.104-2.921-1.014a55 55 0 0 1-1.371-.492 25 25 0 0 1-.697-.27q.114.09.468.402.353.312.842.786zm7.666-1.186-7.587-4.38 1.227-.708 3.242.96q.447.126.873.264.416.132.634.21-.124-.132-.364-.366-.25-.24-.488-.498l-1.694-1.842 1.226-.708 7.587 4.38-.915.528-2.754-1.59a25 25 0 0 1-1.008-.618q-.55-.354-1.102-.732-.56-.384-1.06-.732a87 87 0 0 0-.873-.624l2.567 2.898-.987.57-5.03-1.476q.458.204 1.05.486.582.276 1.226.6.634.318 1.258.642.623.324 1.132.618l2.754 1.59z"/><path fill="#6b7280" d="m199.132 227.456-7.586-4.38.935-.54 1.871 1.08 1.091.63.197-.114.021.24q-.675-.39-.634-.834.031-.45.748-.864a3.65 3.65 0 0 1 1.902-.486 3.94 3.94 0 0 1 1.954.54l3.845 2.22-.935.54-3.741-2.16a2.5 2.5 0 0 0-1.279-.354 2.3 2.3 0 0 0-1.226.312q-.582.336-.561.744.031.402.696.786l3.637 2.1zm9.017-5.206a3.15 3.15 0 0 1-1.549.438 2.94 2.94 0 0 1-1.517-.408l-3.357-1.938-1.611.93-.852-.492 1.611-.93-1.611-.93.936-.54 1.61.93 2.287-1.32.852.492-2.287 1.32 3.357 1.938q.655.378 1.278.018l1.559-.9.852.492zm6.231-3.597a3.15 3.15 0 0 1-1.548.438 2.94 2.94 0 0 1-1.518-.408l-3.356-1.938-1.611.93-.852-.492 1.61-.93-1.61-.93.935-.54 1.611.93 2.286-1.32.852.492-2.286 1.32 3.357 1.938q.654.378 1.278.018l1.559-.9.852.492zm5.317-.91-7.587-4.38.936-.54 1.091.63.187-.108.031.234q-.654-.378-.603-.84.053-.474.759-.882.863-.498 1.943-.462a4.3 4.3 0 0 1 2.068.594l1.674.966q.654.378.893.792.25.408.083.804-.155.39-.737.726-.697.402-1.518.432-.82.03-1.465-.342l.405.018-.208.12 1.32.738 1.663.96zm-.385-2.754q.593-.342.572-.738-.01-.402-.676-.786l-1.559-.9a2.74 2.74 0 0 0-1.361-.39 2.43 2.43 0 0 0-1.278.33q-.572.33-.551.738t.665.78l1.559.9q.645.372 1.351.384t1.278-.318m6.814-3.022a4.6 4.6 0 0 1-1.196.486q-.612.138-1.205.096a3.2 3.2 0 0 1-1.091-.282l.935-.54q.364.138.811.084.456-.06.914-.324l.437-.252q.55-.318.602-.6.042-.288-.332-.504a1.46 1.46 0 0 0-.821-.186q-.457.012-1.008.246l-.894.372q-.988.402-1.777.426a2.9 2.9 0 0 1-1.517-.408q-.77-.444-.697-.966.063-.528 1.04-1.092l.395-.228a4 4 0 0 1 1.704-.54 3.5 3.5 0 0 1 1.642.252l-.935.54a1.55 1.55 0 0 0-.738-.066q-.416.048-.842.294l-.395.228q-.53.306-.582.564-.042.252.353.48.353.204.728.18.374-.024.894-.24l.893-.372q1.071-.45 1.881-.462a2.96 2.96 0 0 1 1.57.414q.79.456.737 1.014-.051.546-1.07 1.134zm2.064-6.207a1.8 1.8 0 0 1-.832.24 1.5 1.5 0 0 1-.81-.192q-.353-.204-.323-.462.02-.264.406-.486.395-.228.841-.234.447-.018.801.186.353.204.332.468-.02.252-.415.48m4.364 2.52a1.8 1.8 0 0 1-.831.24 1.5 1.5 0 0 1-.811-.192q-.353-.204-.322-.462.021-.264.405-.486.396-.228.842-.234.447-.018.8.186t.333.468q-.02.252-.416.48m10.384-4.796-6.079-7.77.987-.57 6.08 7.77zm-4.676 2.7-6.08-7.77.988-.57 6.079 7.77zm12.487-8.409a4 4 0 0 1-1.881.558q-.987.03-1.777-.426-.8-.462-.737-1.026.061-.564.945-1.074l1.767-1.02-.572-.33a2.06 2.06 0 0 0-1.132-.282 2.44 2.44 0 0 0-1.185.348q-.51.294-.634.618-.135.318.177.558l-.936.54q-.644-.48-.478-1.08t1.071-1.122a4.4 4.4 0 0 1 2.068-.606q1.08-.036 1.953.468l3.929 2.268-.915.528-1.091-.63-.156.09v-.18q.624.36.499.852-.114.486-.915.948m-.509-.558q.666-.384.759-.822t-.426-.738l-.811-.468-1.746 1.008q-.467.27-.478.576t.437.564a1.96 1.96 0 0 0 1.081.252 2.7 2.7 0 0 0 1.184-.372m6.845-1.06-7.587-4.38.936-.54 1.091.63.187-.108.031.234q-.654-.378-.603-.84.053-.474.759-.882.863-.498 1.943-.462a4.3 4.3 0 0 1 2.068.594l1.674.966q.654.378.893.792.25.408.083.804-.156.39-.737.726-.697.402-1.518.432-.82.03-1.465-.342l.405.018-.208.12 1.32.738 1.663.96zm-.385-2.754q.593-.342.572-.738-.01-.402-.676-.786l-1.559-.9a2.74 2.74 0 0 0-1.361-.39 2.43 2.43 0 0 0-1.278.33q-.572.33-.551.738t.665.78l1.559.9q.644.372 1.351.384t1.278-.318m4.673-1.882-.853-.492 2.027-1.17-4.011-2.316-1.767 1.02-.852-.492 2.702-1.56 4.863 2.808 1.923-1.11.852.492zm-4.355-5.274a1.5 1.5 0 0 1-.717.21 1.24 1.24 0 0 1-.675-.162q-.312-.18-.291-.396.01-.222.353-.42t.728-.204a1.26 1.26 0 0 1 .685.168q.302.174.281.39t-.364.414m8.144-.393-.832-.48 3.326-1.92.831.48zm8.31-1.318-.915-2.868-4.676-.504 1.101-.636 2.9.366q.186.024.384.066.208.036.333.06a2 2 0 0 1-.125-.18 2 2 0 0 1-.104-.228l-.624-1.68 1.092-.63.883 2.706 4.947.528-1.102.636-3.097-.372a7 7 0 0 1-.405-.066 5 5 0 0 0-.364-.078q.052.078.125.216.072.126.104.24l.634 1.794zm7.634-4.407-4.022-5.454-2.868 1.656 1.122.648-.935.54-1.975-1.14 4.729-2.73.914.528 4.043 5.37zm5.296-3.058-7.587-4.38.936-.54 4.229 2.442 1.102-.636-.696-2.322 1.07-.618.8 2.682 4.947.6-1.091.63-4.209-.51-1.112.642 2.546 1.47zm6.2-3.58-.956-.552-.146-2.76q-.041-.708-.259-1.146a1.7 1.7 0 0 0-.686-.708 2.7 2.7 0 0 0-1.351-.372 2.5 2.5 0 0 0-1.31.336q-.664.384-.675.822 0 .432.655.81l-.936.54q-.664-.408-.873-.864a1 1 0 0 1 .042-.924q.26-.462.956-.864.686-.396 1.455-.528a4.4 4.4 0 0 1 1.528-.018q.757.126 1.434.516.644.372.935.936.29.564.322 1.482l.062 2.196 3.461-1.998.852.492zm8.497-4.785q-.395.228-.863.234a1.65 1.65 0 0 1-.841-.222q-.406-.234-.416-.504 0-.276.395-.504a1.65 1.65 0 0 1 .862-.222q.478 0 .884.234.384.222.374.492 0 .264-.395.492m5.836-1.33-7.586-4.38.935-.54 1.091.63.187-.108.032.234q-.656-.378-.603-.84.052-.474.759-.882.862-.498 1.943-.462 1.08.024 2.068.594l1.673.966q.656.378.894.792.25.408.083.804-.156.39-.738.726-.696.402-1.517.432t-1.465-.342l.405.018-.208.12 1.32.738 1.663.96zm-.384-2.754q.592-.342.571-.738-.01-.402-.675-.786l-1.559-.9a2.74 2.74 0 0 0-1.361-.39 2.43 2.43 0 0 0-1.279.33q-.571.33-.55.738t.665.78l1.559.9q.643.372 1.351.384.707.012 1.278-.318m4.942-2.038-5.715-3.3.914-.528 1.091.63.219-.126.374.564q-.925-.534-.998-1.032-.072-.51.717-.966a3.77 3.77 0 0 1 2.006-.498 4.16 4.16 0 0 1 2.068.57l.343.198-.935.54-.26-.15q-.676-.39-1.362-.402a2.36 2.36 0 0 0-1.288.324q-.593.342-.572.75.032.402.696.786l3.638 2.1zm5.962-3.441-.853-.492 2.027-1.17-4.012-2.316-1.766 1.02-.852-.492 2.702-1.56 4.863 2.808 1.923-1.11.852.492zm-4.355-5.274a1.5 1.5 0 0 1-.717.21 1.24 1.24 0 0 1-.675-.162q-.312-.18-.291-.396.01-.222.353-.42t.727-.204q.374-.012.686.168.302.174.281.39t-.364.414m12.727.536a4.6 4.6 0 0 1-1.195.486 4.1 4.1 0 0 1-1.206.096 3.2 3.2 0 0 1-1.091-.282l.935-.54q.364.138.811.084.457-.06.914-.324l.437-.252q.55-.318.603-.6.04-.288-.333-.504a1.45 1.45 0 0 0-.821-.186q-.458.012-1.008.246l-.894.372q-.987.402-1.777.426a2.9 2.9 0 0 1-1.517-.408q-.77-.444-.696-.966.062-.528 1.039-1.092l.395-.228a4 4 0 0 1 1.704-.54 3.5 3.5 0 0 1 1.642.252l-.935.54a1.55 1.55 0 0 0-.738-.066q-.416.048-.842.294l-.395.228q-.53.306-.582.564-.042.252.354.48.353.204.727.18t.894-.24l.893-.372q1.071-.45 1.881-.462a2.96 2.96 0 0 1 1.57.414q.789.456.738 1.014-.053.546-1.071 1.134zm3.893-2.344-5.716-3.3.821-.474.686.396.187-.108.104.228q-.479-.276-.509-.582-.021-.312.415-.564a1.8 1.8 0 0 1 1.092-.222q.612.054 1.257.426l-.842-.162.437-.252.052.258q-.478-.276-.499-.588-.01-.318.426-.57.54-.312 1.237-.246.707.06 1.371.444l4.344 2.508-.862.498-4.355-2.514a1.6 1.6 0 0 0-.706-.228q-.343-.03-.634.138-.28.162-.25.372.031.198.385.402l4.365 2.52-.749.432-4.354-2.514a1.5 1.5 0 0 0-.717-.222 1.1 1.1 0 0 0-.644.144q-.291.168-.239.366.04.192.395.396l4.364 2.52zm8.268-4.653a4 4 0 0 1-1.881.558q-.988.03-1.777-.426-.801-.462-.738-1.026t.946-1.074l1.766-1.02-.571-.33a2.06 2.06 0 0 0-1.133-.282 2.44 2.44 0 0 0-1.185.348q-.508.294-.634.618-.135.318.177.558l-.935.54q-.645-.48-.478-1.08.166-.6 1.07-1.122a4.4 4.4 0 0 1 2.068-.606q1.081-.036 1.954.468l3.928 2.268-.914.528-1.091-.63-.156.09v-.18q.623.36.498.852-.114.486-.914.948m-.509-.558q.665-.384.758-.822.094-.438-.426-.738l-.81-.468-1.746 1.008q-.468.27-.478.576t.436.564q.478.276 1.081.252a2.7 2.7 0 0 0 1.185-.372m7.239-3.328a1.74 1.74 0 0 1-.862.234q-.458 0-.842-.222-.405-.234-.416-.504 0-.276.395-.504t.863-.222q.477 0 .883.234.384.222.374.492 0 .264-.395.492m4.163-2.524-5.715-3.3.914-.528 1.091.63.219-.126.374.564q-.925-.534-.998-1.032-.072-.51.717-.966a3.77 3.77 0 0 1 2.006-.498 4.16 4.16 0 0 1 2.068.57l.343.198-.935.54-.26-.15q-.676-.39-1.362-.402a2.36 2.36 0 0 0-1.288.324q-.593.342-.572.75.032.402.696.786l3.638 2.1zm8.289-4.665a4.3 4.3 0 0 1-2.161.576 4.3 4.3 0 0 1-2.193-.582l-3.637-2.1.935-.54 3.637 2.1q.645.372 1.341.39.686.012 1.257-.318.582-.336.562-.732-.021-.408-.666-.78l-3.637-2.1.935-.54 3.638 2.1q1.008.582.997 1.272-.02.684-1.008 1.254m3.977-2.416-5.716-3.3.935-.54 1.091.63.198-.114.021.24q-.676-.39-.634-.834.03-.45.748-.864a3.65 3.65 0 0 1 1.902-.486 3.94 3.94 0 0 1 1.953.54l3.846 2.22-.936.54-3.741-2.16a2.46 2.46 0 0 0-1.268-.348 2.35 2.35 0 0 0-1.216.318q-.582.336-.571.738.02.396.686.78l3.637 2.1zM216.591 237.536l-7.586-4.38.935-.54 1.091.63.187-.108.032.234q-.656-.378-.603-.84.051-.474.758-.882.863-.498 1.944-.462 1.08.024 2.068.594l1.673.966q.655.378.894.792.25.408.083.804-.156.39-.738.726-.696.402-1.517.432-.822.03-1.465-.342l.405.018-.208.12 1.32.738 1.663.96zm-.384-2.754q.592-.342.571-.738-.01-.402-.675-.786l-1.559-.9a2.74 2.74 0 0 0-1.361-.39 2.43 2.43 0 0 0-1.279.33q-.571.33-.55.738t.665.78l1.558.9q.645.372 1.351.384.708.012 1.279-.318m4.942-2.038-5.715-3.3.914-.528 1.091.63.219-.126.374.564q-.925-.534-.998-1.032-.072-.51.717-.966a3.77 3.77 0 0 1 2.006-.498 4.16 4.16 0 0 1 2.068.57l.343.198-.935.54-.26-.15q-.676-.39-1.362-.402a2.36 2.36 0 0 0-1.288.324q-.593.342-.572.75.031.402.696.786l3.638 2.1zm8.279-4.683a4.5 4.5 0 0 1-1.445.534 4.6 4.6 0 0 1-1.527.018 4.3 4.3 0 0 1-1.445-.522l-1.517-.876q-.686-.396-.904-.834a.93.93 0 0 1 .031-.882q.239-.438.925-.834a4.5 4.5 0 0 1 1.444-.534 4.4 4.4 0 0 1 1.518-.012q.769.12 1.444.51l1.528.882q.675.39.894.84a.9.9 0 0 1-.021.876q-.239.438-.925.834m-.831-.48q.612-.354.613-.75 0-.396-.665-.78l-1.518-.876a2.67 2.67 0 0 0-1.351-.384q-.685 0-1.299.354-.602.348-.613.75 0 .396.665.78l1.518.876q.664.384 1.351.384a2.6 2.6 0 0 0 1.299-.354m6.751-2.914q-.853.492-1.954.468a4.3 4.3 0 0 1-2.068-.594l-1.673-.966q-.988-.57-1.04-1.2-.051-.63.811-1.128a3.2 3.2 0 0 1 1.517-.432 2.7 2.7 0 0 1 1.455.348l-.405-.018.208-.12-1.32-.738-1.663-.96.935-.54 7.587 4.38-.936.54-1.091-.63-.187.108-.031-.234q.655.378.613.846-.051.462-.758.87m-.499-.648q.582-.336.551-.738t-.676-.774l-1.559-.9a2.8 2.8 0 0 0-1.34-.39 2.4 2.4 0 0 0-1.279.318q-.593.342-.582.744.01.402.676.786l1.559.9q.665.384 1.361.39a2.5 2.5 0 0 0 1.289-.336m7.052-3.136a4.3 4.3 0 0 1-2.162.576q-1.184 0-2.192-.582l-3.638-2.1.936-.54 3.637 2.1q.644.372 1.341.39.685.012 1.257-.318.582-.336.561-.732-.02-.408-.665-.78l-3.637-2.1.935-.54 3.637 2.1q1.008.582.998 1.272-.021.684-1.008 1.254m6.283-3.627a4.7 4.7 0 0 1-1.465.546 4.5 4.5 0 0 1-1.538.024 4.2 4.2 0 0 1-1.455-.516l-1.559-.9q-.686-.396-.894-.84a.92.92 0 0 1 .042-.888q.26-.45.946-.846a4.5 4.5 0 0 1 2.12-.612 4 4 0 0 1 2.078.468l-.935.54q-.582-.3-1.216-.27-.634.018-1.216.354-.614.354-.623.768-.02.408.623.78l1.569.906q.645.372 1.362.366a2.66 2.66 0 0 0 1.33-.36q.582-.336.613-.702.042-.372-.468-.702l.936-.54q.883.546.81 1.2t-1.06 1.224m6.71-3.994a3.15 3.15 0 0 1-1.549.438 2.94 2.94 0 0 1-1.517-.408l-3.357-1.938-1.611.93-.852-.492 1.611-.93-1.611-.93.936-.54 1.61.93 2.287-1.32.852.492-2.286 1.32 3.356 1.938q.655.378 1.279.018l1.558-.9.853.492zm3.373-1.948-.852-.492 2.026-1.17-4.011-2.316-1.767 1.02-.852-.492 2.702-1.56 4.864 2.808 1.922-1.11.853.492zm-4.354-5.274a1.5 1.5 0 0 1-.717.21 1.24 1.24 0 0 1-.676-.162q-.312-.18-.291-.396.01-.222.354-.42t.727-.204q.374-.012.686.168.301.174.28.39t-.363.414m12.903.435a4.5 4.5 0 0 1-1.445.534 4.6 4.6 0 0 1-1.527.018 4.3 4.3 0 0 1-1.445-.522l-1.517-.876q-.686-.396-.904-.834a.93.93 0 0 1 .031-.882q.239-.438.925-.834a4.5 4.5 0 0 1 1.444-.534 4.4 4.4 0 0 1 1.518-.012q.768.12 1.444.51l1.528.882q.675.39.894.84a.9.9 0 0 1-.021.876q-.239.438-.925.834m-.831-.48q.613-.354.613-.75t-.665-.78l-1.518-.876a2.67 2.67 0 0 0-1.351-.384q-.685 0-1.299.354-.603.348-.613.75 0 .396.665.78l1.518.876q.664.384 1.351.384a2.6 2.6 0 0 0 1.299-.354m4.818-1.918-5.716-3.3.935-.54 1.091.63.198-.114.021.24q-.676-.39-.634-.834.03-.45.748-.864a3.65 3.65 0 0 1 1.902-.486 3.94 3.94 0 0 1 1.953.54l3.846 2.22-.936.54-3.741-2.16a2.46 2.46 0 0 0-1.268-.348 2.35 2.35 0 0 0-1.216.318q-.582.336-.571.738.02.396.686.78l3.637 2.1zm11.922-10.003q-.395.228-.863.234-.457 0-.842-.222-.405-.234-.415-.504 0-.276.395-.504.394-.228.862-.222.478 0 .884.234.384.222.374.492 0 .264-.395.492m15.258-5.569a4.3 4.3 0 0 1-2.162.576q-1.184 0-2.192-.582l-3.638-2.1.936-.54 3.637 2.1a2.8 2.8 0 0 0 1.34.39q.687.012 1.258-.318.582-.336.561-.732-.02-.408-.665-.78l-3.637-2.1.935-.54 3.637 2.1q1.008.582.998 1.272-.021.684-1.008 1.254m6.044-3.514a4.5 4.5 0 0 1-1.195.486q-.613.138-1.205.096a3.2 3.2 0 0 1-1.092-.282l.936-.54q.363.138.81.084.458-.06.915-.324l.436-.252q.551-.318.603-.6.042-.288-.332-.504a1.46 1.46 0 0 0-.821-.186q-.457.012-1.009.246l-.893.372q-.988.402-1.777.426a2.9 2.9 0 0 1-1.518-.408q-.768-.444-.696-.966.063-.528 1.039-1.092l.395-.228a4 4 0 0 1 1.705-.54 3.5 3.5 0 0 1 1.642.252l-.936.54a1.55 1.55 0 0 0-.738-.066q-.415.048-.841.294l-.395.228q-.531.306-.582.564-.042.252.353.48.354.204.728.18t.893-.24l.894-.372q1.071-.45 1.881-.462a2.96 2.96 0 0 1 1.569.414q.79.456.738 1.014-.052.546-1.07 1.134zm1.649-4.528-.832-.48 3.326-1.92.831.48zm11.011-2.757q-.675.39-1.455.528a4.7 4.7 0 0 1-1.538.012 4.3 4.3 0 0 1-1.423-.51l-1.559-.9q-.666-.384-.884-.822a.96.96 0 0 1 .021-.888q.24-.45.915-.84.676-.39 1.444-.522a4.5 4.5 0 0 1 1.538-.012q.77.12 1.434.504l1.008.582-3.554 2.052.551.318q.675.39 1.382.402a2.6 2.6 0 0 0 1.331-.36q.54-.312.685-.612.135-.306-.176-.57l.935-.54q.623.468.437 1.068-.187.588-1.092 1.11m-2.037-2.7-.384-.222a2.83 2.83 0 0 0-1.382-.402 2.5 2.5 0 0 0-1.341.354q-.634.366-.613.774t.696.798l.302.174 2.712-1.566zm7.77-.61a4 4 0 0 1-1.881.558q-.987.03-1.777-.426-.801-.462-.738-1.026.062-.564.946-1.074l1.766-1.02-.571-.33a2.06 2.06 0 0 0-1.133-.282 2.44 2.44 0 0 0-1.185.348q-.509.294-.634.618-.135.318.177.558l-.935.54q-.645-.48-.478-1.08.165-.6 1.07-1.122a4.4 4.4 0 0 1 2.068-.606q1.081-.036 1.954.468l3.928 2.268-.914.528-1.092-.63-.155.09v-.18q.623.36.498.852-.114.486-.914.948m-.509-.558q.665-.384.758-.822.095-.438-.426-.738l-.81-.468-1.746 1.008q-.468.27-.478.576t.436.564q.478.276 1.081.252a2.7 2.7 0 0 0 1.185-.372m7.042-3.238a4.6 4.6 0 0 1-1.196.486q-.612.138-1.205.096a3.2 3.2 0 0 1-1.091-.282l.935-.54q.363.138.811.084.456-.06.914-.324l.437-.252q.55-.318.602-.6.042-.288-.332-.504a1.46 1.46 0 0 0-.821-.186q-.458.012-1.008.246l-.894.372q-.987.402-1.777.426a2.9 2.9 0 0 1-1.517-.408q-.77-.444-.697-.966.062-.528 1.04-1.092l.395-.228a4 4 0 0 1 1.704-.54 3.5 3.5 0 0 1 1.642.252l-.935.54a1.55 1.55 0 0 0-.738-.066q-.416.048-.842.294l-.395.228q-.53.306-.582.564-.042.252.353.48.354.204.728.18t.894-.24l.893-.372q1.071-.45 1.881-.462a2.96 2.96 0 0 1 1.57.414q.79.456.737 1.014-.051.546-1.07 1.134zm6.948-4.107a3.15 3.15 0 0 1-1.549.438 2.94 2.94 0 0 1-1.517-.408l-3.357-1.938-1.61.93-.853-.492 1.611-.93-1.611-.93.936-.54 1.611.93 2.286-1.32.852.492-2.286 1.32 3.356 1.938q.655.378 1.279.018l1.559-.9.852.492zm.931-4.018-.831-.48 3.325-1.92.832.48zm8.726-1.558-.853-.492 2.058-1.188-5.955-3.438-.519 2.076-1.039-.6.436-1.728 1.278-.738 6.734 3.888 1.684-.972.852.492zM232.554 244.28a4.5 4.5 0 0 1-1.995.6 4.2 4.2 0 0 1-1.985-.342l.935-.54q.499.228 1.081.18a2.8 2.8 0 0 0 1.143-.384q.654-.378.623-.768-.02-.396-.665-.768l-.738-.426a2.7 2.7 0 0 0-1.33-.384q-.675-.018-1.32.354-.405.234-.488.534-.093.294.125.576l-.936.54-4.146-2.454 3.99-2.304.853.492-3.087 1.782 2.494 1.476.291-.168-.021.324q-.488-.282-.384-.666.114-.39.769-.768a3.6 3.6 0 0 1 2.006-.498q1.09.03 2.12.624l.738.426q1.008.582 1.008 1.266-.011.678-1.081 1.296m3.966-2.41-.853-.492 2.058-1.188-5.955-3.438-.519 2.076-1.04-.6.437-1.728 1.278-.738 6.734 3.888 1.684-.972.852.492zm6.252-3.609-.956-.552-.146-2.76q-.042-.708-.26-1.146a1.7 1.7 0 0 0-.686-.708 2.7 2.7 0 0 0-1.351-.372 2.5 2.5 0 0 0-1.309.336q-.665.384-.675.822 0 .432.654.81l-.935.54q-.665-.408-.873-.864a.99.99 0 0 1 .042-.924q.259-.462.956-.864.685-.396 1.455-.528a4.4 4.4 0 0 1 1.527-.018 4.2 4.2 0 0 1 1.434.516q.645.372.936.936.29.564.322 1.482l.062 2.196 3.461-1.998.852.492zm12.296-7.1-7.586-4.38 1.226-.708 3.242.96q.447.126.873.264.416.132.634.21a14 14 0 0 0-.363-.366q-.25-.24-.489-.498l-1.694-1.842 1.226-.708 7.587 4.38-.915.528-2.754-1.59q-.456-.264-1.008-.618-.55-.354-1.101-.732-.561-.384-1.06-.732-.5-.36-.873-.624l2.567 2.898-.988.57-5.029-1.476q.456.204 1.049.486.582.276 1.226.6.634.318 1.258.642t1.133.618l2.754 1.59zm6.408-3.699-7.586-4.38 2.151-1.242q1.039-.6 2.141-.636a3.7 3.7 0 0 1 2.037.492q.52.3.686.648t-.032.702q-.186.348-.758.666l-.156-.09a3.6 3.6 0 0 1 1.268-.468q.685-.12 1.371 0 .697.114 1.31.468.644.372.852.804a.9.9 0 0 1-.031.87q-.25.432-.946.834zm.073-1.014 1.288-.744q.656-.378.686-.792.032-.426-.571-.774-.624-.36-1.393-.36a2.7 2.7 0 0 0-1.424.366l-1.288.744zm-3.513-2.028 1.227-.708q.602-.348.623-.732.032-.39-.52-.708a2.3 2.3 0 0 0-1.215-.306 2.6 2.6 0 0 0-1.268.36l-1.237.714zm15.352-6.956q-.395.228-.863.234-.457 0-.841-.222-.406-.234-.416-.504 0-.276.395-.504a1.65 1.65 0 0 1 .862-.222q.479 0 .884.234.384.222.374.492 0 .264-.395.492m13.003-4.387-5.716-3.3.936-.54 1.091.63.197-.114.021.24q-.675-.39-.634-.834.031-.45.748-.864a3.65 3.65 0 0 1 1.902-.486 3.94 3.94 0 0 1 1.954.54l3.845 2.22-.935.54-3.742-2.16a2.45 2.45 0 0 0-1.267-.348 2.35 2.35 0 0 0-1.216.318q-.582.336-.572.738.021.396.686.78l3.637 2.1zm8.476-4.798a4.5 4.5 0 0 1-1.444.534 4.6 4.6 0 0 1-1.528.018 4.3 4.3 0 0 1-1.445-.522l-1.517-.876q-.686-.396-.904-.834a.93.93 0 0 1 .031-.882q.239-.438.925-.834a4.5 4.5 0 0 1 1.445-.534 4.4 4.4 0 0 1 1.517-.012q.77.12 1.444.51l1.528.882q.675.39.894.84a.9.9 0 0 1-.021.876q-.239.438-.925.834m-.831-.48q.613-.354.613-.75t-.665-.78l-1.518-.876a2.67 2.67 0 0 0-1.351-.384q-.685 0-1.299.354-.602.348-.613.75 0 .396.665.78l1.518.876q.664.384 1.351.384a2.6 2.6 0 0 0 1.299-.354m13.834-7.123a3.15 3.15 0 0 1-1.548.438 2.94 2.94 0 0 1-1.518-.408l-3.356-1.938-1.611.93-.852-.492 1.61-.93-1.61-.93.935-.54 1.611.93 2.286-1.32.852.492-2.286 1.32 3.357 1.938q.654.378 1.278.018l1.559-.9.852.492zm3.374-1.947-.853-.492 2.027-1.17-4.012-2.316-1.766 1.02-.852-.492 2.702-1.56 4.863 2.808 1.923-1.11.852.492zm-4.355-5.274a1.5 1.5 0 0 1-.717.21 1.24 1.24 0 0 1-.675-.162q-.312-.18-.291-.396.01-.222.353-.42t.727-.204q.374-.012.686.168.302.174.281.39t-.364.414m10.388 1.79-5.715-3.3.821-.474.686.396.187-.108.104.228q-.478-.276-.51-.582-.02-.312.416-.564a1.8 1.8 0 0 1 1.091-.222q.613.054 1.258.426l-.842-.162.436-.252.052.258q-.477-.276-.499-.588-.01-.318.427-.57.54-.312 1.236-.246.707.06 1.372.444l4.344 2.508-.863.498-4.354-2.514a1.6 1.6 0 0 0-.707-.228q-.343-.03-.634.138-.28.162-.249.372.031.198.385.402l4.364 2.52-.748.432-4.354-2.514a1.54 1.54 0 0 0-.717-.222 1.1 1.1 0 0 0-.645.144q-.29.168-.239.366.042.192.395.396l4.365 2.52zm8.767-4.942a4.4 4.4 0 0 1-1.454.528 4.7 4.7 0 0 1-1.539.012 4.3 4.3 0 0 1-1.423-.51l-1.559-.9q-.666-.384-.883-.822a.96.96 0 0 1 .02-.888q.24-.45.915-.84.676-.39 1.444-.522a4.5 4.5 0 0 1 1.538-.012q.77.12 1.435.504l1.008.582-3.555 2.052.551.318q.676.39 1.382.402.697.006 1.331-.36.54-.312.686-.612.135-.306-.177-.57l.935-.54q.623.468.437 1.068-.187.588-1.092 1.11m-2.036-2.7-.385-.222a2.83 2.83 0 0 0-1.382-.402 2.5 2.5 0 0 0-1.341.354q-.634.366-.613.774t.696.798l.302.174 2.712-1.566zm8.247-.909a4.5 4.5 0 0 1-1.445.534 4.6 4.6 0 0 1-1.527.018 4.3 4.3 0 0 1-1.445-.522l-1.517-.876q-.686-.396-.904-.834a.93.93 0 0 1 .031-.882q.239-.438.925-.834a4.5 4.5 0 0 1 1.444-.534 4.4 4.4 0 0 1 1.518-.012q.769.12 1.444.51l1.528.882q.675.39.894.84a.9.9 0 0 1-.021.876q-.239.438-.925.834m-.831-.48q.612-.354.613-.75 0-.396-.665-.78l-1.518-.876a2.67 2.67 0 0 0-1.351-.384q-.685 0-1.299.354-.603.348-.613.75 0 .396.665.78l1.518.876q.664.384 1.351.384a2.6 2.6 0 0 0 1.299-.354m7.073-3.1a4.3 4.3 0 0 1-2.162.576 4.3 4.3 0 0 1-2.193-.582l-3.637-2.1.935-.54 3.638 2.1a2.8 2.8 0 0 0 1.34.39q.687.012 1.258-.318.582-.336.561-.732-.021-.408-.665-.78l-3.638-2.1.936-.54 3.637 2.1q1.008.582.998 1.272-.021.684-1.008 1.254m6.761-4.024a3.15 3.15 0 0 1-1.548.438 2.94 2.94 0 0 1-1.518-.408l-3.356-1.938-1.611.93-.852-.492 1.61-.93-1.61-.93.935-.54 1.611.93 2.286-1.32.852.492-2.286 1.32 3.357 1.938q.654.378 1.278.018l1.559-.9.852.492z"/><path fill="#0f766e" d="m233.686 281.186-1.361-.786a5 5 0 0 1-2.162.528 4.1 4.1 0 0 1-2.016-.504l.935-.54q.51.294 1.133.306.634.006 1.268-.276l-2.723-1.572-.364.114a5.4 5.4 0 0 1-2.005.234 4.1 4.1 0 0 1-1.736-.522q-.832-.48-.862-1.086-.021-.612.769-1.164l-1.372-.792.623-.36 1.362.786q.945-.45 2.006-.438a3.94 3.94 0 0 1 1.922.498l-.935.54a2.3 2.3 0 0 0-1.05-.306 2.4 2.4 0 0 0-1.101.192l2.577 1.488.551-.162q.997-.3 1.985-.21.987.09 1.756.534.853.492.862 1.134.022.636-.8 1.218l1.362.786zm-1.58-1.632q.427-.342.395-.684-.03-.342-.53-.63a2.5 2.5 0 0 0-1.049-.318q-.582-.06-1.175.126l-.166.048zm-3.917-1.542-2.796-1.614q-.384.306-.364.618.031.306.478.564.541.312 1.247.336.697.018 1.414-.288z"/></g><rect width="370.171" height="331.936" x="-1.183" stroke="url(#c)" stroke-width="1.366" rx="10.251" transform="matrix(.86603 -.5 .86603 .5 1.767 170.811)"/></g><defs><radialGradient id="c" cx="0" cy="0" r="1" gradientTransform="matrix(242.889 235.845 -156.478 160.654 38.476 3.717)" gradientUnits="userSpaceOnUse"><stop stop-color="#2dd4bf"/><stop offset="1" stop-color="#fff"/></radialGradient><clipPath id="b"><rect width="368.805" height="330.57" fill="#fff" rx="9.568" transform="matrix(.86603 -.5 .86603 .5 1.926 171.402)"/></clipPath><filter id="a" width="609.528" height="445.333" x="0" y="-13" color-interpolation-filters="sRGB" filterUnits="userSpaceOnUse"><feFlood flood-opacity="0" result="BackgroundImageFix"/><feColorMatrix in="SourceAlpha" result="hardAlpha" values="0 0 0 0 0 0 0 0 0 0 0 0 0 0 0 0 0 0 127 0"/><feOffset dy="2.407"/><feGaussianBlur stdDeviation=".963"/><feColorMatrix values="0 0 0 0 0 0 0 0 0 0 0 0 0 0 0 0 0 0 0.0787208 0"/><feBlend in2="BackgroundImageFix" result="effect1_dropShadow_4467_11559"/><feBlend in="SourceGraphic" in2="effect1_dropShadow_4467_11559" result="shape"/></filter></defs></svg>